<mxfile host="app.diagrams.net" modified="2022-09-07T03:49:00.346Z" agent="5.0 (Windows NT 10.0; Win64; x64) AppleWebKit/537.36 (KHTML, like Gecko) Chrome/104.0.0.0 Safari/537.36" etag="wkHjOiXSlQeTZrQX9t-V" version="20.2.8" type="github">
  <diagram id="H5ckzEO8DUSfEvIOyFvg" name="Page-1">
    <mxGraphModel dx="1052" dy="622" grid="1" gridSize="10" guides="1" tooltips="1" connect="1" arrows="1" fold="1" page="1" pageScale="1" pageWidth="1100" pageHeight="850" math="0" shadow="0">
      <root>
        <mxCell id="0" />
        <mxCell id="1" parent="0" />
        <mxCell id="vjU_jRLMgszIU2lQWa2H-4" value="Brand Owner" style="edgeStyle=orthogonalEdgeStyle;rounded=0;orthogonalLoop=1;jettySize=auto;html=1;exitX=0.25;exitY=1;exitDx=0;exitDy=0;entryX=0.5;entryY=0;entryDx=0;entryDy=0;" edge="1" parent="1" source="vjU_jRLMgszIU2lQWa2H-1" target="vjU_jRLMgszIU2lQWa2H-2">
          <mxGeometry relative="1" as="geometry" />
        </mxCell>
        <mxCell id="vjU_jRLMgszIU2lQWa2H-5" value="Product Owner" style="edgeStyle=orthogonalEdgeStyle;rounded=0;orthogonalLoop=1;jettySize=auto;html=1;exitX=0.75;exitY=1;exitDx=0;exitDy=0;entryX=0.5;entryY=0;entryDx=0;entryDy=0;" edge="1" parent="1" source="vjU_jRLMgszIU2lQWa2H-1" target="vjU_jRLMgszIU2lQWa2H-3">
          <mxGeometry relative="1" as="geometry" />
        </mxCell>
        <mxCell id="vjU_jRLMgszIU2lQWa2H-11" value="T1" style="edgeStyle=orthogonalEdgeStyle;rounded=0;orthogonalLoop=1;jettySize=auto;html=1;entryX=0;entryY=0.5;entryDx=0;entryDy=0;exitX=0;exitY=0.5;exitDx=0;exitDy=0;" edge="1" parent="1" source="vjU_jRLMgszIU2lQWa2H-1" target="vjU_jRLMgszIU2lQWa2H-8">
          <mxGeometry relative="1" as="geometry">
            <Array as="points">
              <mxPoint x="90" y="230" />
              <mxPoint x="90" y="490" />
            </Array>
          </mxGeometry>
        </mxCell>
        <mxCell id="vjU_jRLMgszIU2lQWa2H-20" value="Purchase" style="edgeStyle=orthogonalEdgeStyle;rounded=0;orthogonalLoop=1;jettySize=auto;html=1;exitX=1;exitY=0.5;exitDx=0;exitDy=0;entryX=0.5;entryY=0;entryDx=0;entryDy=0;" edge="1" parent="1" source="vjU_jRLMgszIU2lQWa2H-1" target="vjU_jRLMgszIU2lQWa2H-19">
          <mxGeometry relative="1" as="geometry" />
        </mxCell>
        <mxCell id="vjU_jRLMgszIU2lQWa2H-1" value="Company" style="rounded=1;whiteSpace=wrap;html=1;fillColor=#f5f5f5;fontColor=#333333;strokeColor=#666666;" vertex="1" parent="1">
          <mxGeometry x="160" y="200" width="120" height="60" as="geometry" />
        </mxCell>
        <mxCell id="vjU_jRLMgszIU2lQWa2H-15" style="edgeStyle=orthogonalEdgeStyle;rounded=0;orthogonalLoop=1;jettySize=auto;html=1;exitX=1;exitY=0.5;exitDx=0;exitDy=0;entryX=0;entryY=0.5;entryDx=0;entryDy=0;" edge="1" parent="1" source="vjU_jRLMgszIU2lQWa2H-2" target="vjU_jRLMgszIU2lQWa2H-3">
          <mxGeometry relative="1" as="geometry" />
        </mxCell>
        <mxCell id="vjU_jRLMgszIU2lQWa2H-2" value="Brand" style="rounded=1;whiteSpace=wrap;html=1;fillColor=#dae8fc;strokeColor=#6c8ebf;" vertex="1" parent="1">
          <mxGeometry x="130" y="320" width="120" height="60" as="geometry" />
        </mxCell>
        <mxCell id="vjU_jRLMgszIU2lQWa2H-23" style="edgeStyle=orthogonalEdgeStyle;rounded=0;orthogonalLoop=1;jettySize=auto;html=1;exitX=1;exitY=0.5;exitDx=0;exitDy=0;entryX=0;entryY=0.5;entryDx=0;entryDy=0;" edge="1" parent="1" source="vjU_jRLMgszIU2lQWa2H-3" target="vjU_jRLMgszIU2lQWa2H-19">
          <mxGeometry relative="1" as="geometry" />
        </mxCell>
        <mxCell id="vjU_jRLMgszIU2lQWa2H-3" value="Product" style="rounded=1;whiteSpace=wrap;html=1;fillColor=#d5e8d4;strokeColor=#82b366;" vertex="1" parent="1">
          <mxGeometry x="330" y="320" width="120" height="60" as="geometry" />
        </mxCell>
        <mxCell id="vjU_jRLMgszIU2lQWa2H-7" value="Parent Company" style="edgeStyle=orthogonalEdgeStyle;rounded=0;orthogonalLoop=1;jettySize=auto;html=1;entryX=0.5;entryY=0;entryDx=0;entryDy=0;" edge="1" parent="1" source="vjU_jRLMgszIU2lQWa2H-6" target="vjU_jRLMgszIU2lQWa2H-1">
          <mxGeometry relative="1" as="geometry" />
        </mxCell>
        <mxCell id="vjU_jRLMgszIU2lQWa2H-6" value="Company" style="rounded=1;whiteSpace=wrap;html=1;fillColor=#f5f5f5;fontColor=#333333;strokeColor=#666666;" vertex="1" parent="1">
          <mxGeometry x="160" y="80" width="120" height="60" as="geometry" />
        </mxCell>
        <mxCell id="vjU_jRLMgszIU2lQWa2H-10" value="Product Wholesaler" style="edgeStyle=orthogonalEdgeStyle;rounded=0;orthogonalLoop=1;jettySize=auto;html=1;entryX=0.25;entryY=1;entryDx=0;entryDy=0;" edge="1" parent="1" source="vjU_jRLMgszIU2lQWa2H-8" target="vjU_jRLMgszIU2lQWa2H-3">
          <mxGeometry relative="1" as="geometry" />
        </mxCell>
        <mxCell id="vjU_jRLMgszIU2lQWa2H-14" value="T2" style="edgeStyle=orthogonalEdgeStyle;rounded=0;orthogonalLoop=1;jettySize=auto;html=1;exitX=1;exitY=0.5;exitDx=0;exitDy=0;entryX=0;entryY=0.5;entryDx=0;entryDy=0;" edge="1" parent="1" source="vjU_jRLMgszIU2lQWa2H-8" target="vjU_jRLMgszIU2lQWa2H-12">
          <mxGeometry relative="1" as="geometry" />
        </mxCell>
        <mxCell id="vjU_jRLMgszIU2lQWa2H-17" value="Area Wholesaler" style="edgeStyle=orthogonalEdgeStyle;rounded=0;orthogonalLoop=1;jettySize=auto;html=1;exitX=0.5;exitY=1;exitDx=0;exitDy=0;entryX=0.25;entryY=0;entryDx=0;entryDy=0;" edge="1" parent="1" source="vjU_jRLMgszIU2lQWa2H-8" target="vjU_jRLMgszIU2lQWa2H-16">
          <mxGeometry relative="1" as="geometry" />
        </mxCell>
        <mxCell id="vjU_jRLMgszIU2lQWa2H-8" value="Company" style="rounded=1;whiteSpace=wrap;html=1;fillColor=#f5f5f5;fontColor=#333333;strokeColor=#666666;" vertex="1" parent="1">
          <mxGeometry x="300" y="460" width="120" height="60" as="geometry" />
        </mxCell>
        <mxCell id="vjU_jRLMgszIU2lQWa2H-13" value="Product Wholesaler" style="edgeStyle=orthogonalEdgeStyle;rounded=0;orthogonalLoop=1;jettySize=auto;html=1;exitX=0.25;exitY=0;exitDx=0;exitDy=0;entryX=0.75;entryY=1;entryDx=0;entryDy=0;" edge="1" parent="1" source="vjU_jRLMgszIU2lQWa2H-12" target="vjU_jRLMgszIU2lQWa2H-3">
          <mxGeometry relative="1" as="geometry" />
        </mxCell>
        <mxCell id="vjU_jRLMgszIU2lQWa2H-18" value="Area Wholesaler" style="edgeStyle=orthogonalEdgeStyle;rounded=0;orthogonalLoop=1;jettySize=auto;html=1;exitX=0.25;exitY=1;exitDx=0;exitDy=0;entryX=0.75;entryY=0;entryDx=0;entryDy=0;" edge="1" parent="1" source="vjU_jRLMgszIU2lQWa2H-12" target="vjU_jRLMgszIU2lQWa2H-16">
          <mxGeometry relative="1" as="geometry" />
        </mxCell>
        <mxCell id="vjU_jRLMgszIU2lQWa2H-12" value="Company" style="rounded=1;whiteSpace=wrap;html=1;fillColor=#f5f5f5;fontColor=#333333;strokeColor=#666666;" vertex="1" parent="1">
          <mxGeometry x="490" y="460" width="120" height="60" as="geometry" />
        </mxCell>
        <mxCell id="vjU_jRLMgszIU2lQWa2H-16" value="Area" style="rounded=1;whiteSpace=wrap;html=1;fillColor=#ffe6cc;strokeColor=#d79b00;" vertex="1" parent="1">
          <mxGeometry x="330" y="580" width="120" height="60" as="geometry" />
        </mxCell>
        <mxCell id="vjU_jRLMgszIU2lQWa2H-21" value="to company" style="edgeStyle=orthogonalEdgeStyle;rounded=0;orthogonalLoop=1;jettySize=auto;html=1;exitX=0.375;exitY=1;exitDx=0;exitDy=0;entryX=0.75;entryY=0;entryDx=0;entryDy=0;" edge="1" parent="1" source="vjU_jRLMgszIU2lQWa2H-19" target="vjU_jRLMgszIU2lQWa2H-12">
          <mxGeometry relative="1" as="geometry" />
        </mxCell>
        <mxCell id="vjU_jRLMgszIU2lQWa2H-22" value="to area" style="edgeStyle=orthogonalEdgeStyle;rounded=0;orthogonalLoop=1;jettySize=auto;html=1;exitX=0.625;exitY=1;exitDx=0;exitDy=0;entryX=1;entryY=0.5;entryDx=0;entryDy=0;" edge="1" parent="1" source="vjU_jRLMgszIU2lQWa2H-19" target="vjU_jRLMgszIU2lQWa2H-16">
          <mxGeometry relative="1" as="geometry" />
        </mxCell>
        <mxCell id="vjU_jRLMgszIU2lQWa2H-19" value="Price" style="shape=hexagon;perimeter=hexagonPerimeter2;whiteSpace=wrap;html=1;fixedSize=1;fillColor=#f8cecc;strokeColor=#b85450;" vertex="1" parent="1">
          <mxGeometry x="580" y="310" width="120" height="80" as="geometry" />
        </mxCell>
      </root>
    </mxGraphModel>
  </diagram>
</mxfile>
